<svg width="21" height="21" viewBox="0 0 21 21" fill="none" xmlns="http://www.w3.org/2000/svg">
<g clip-path="url(#clip0_14_531)">
<path d="M19.0574 5.93335C18.9571 5.53275 18.7529 5.1657 18.4654 4.86928C18.1779 4.57286 17.8172 4.35757 17.4198 4.24515C15.968 3.89063 10.1606 3.89062 10.1606 3.89062C10.1606 3.89062 4.35317 3.89063 2.90132 4.27891C2.50396 4.39133 2.1433 4.60662 1.85577 4.90304C1.56825 5.19946 1.36404 5.56651 1.26377 5.96711C0.998058 7.44053 0.868085 8.93523 0.875483 10.4324C0.866011 11.9408 0.995993 13.4469 1.26377 14.9314C1.37431 15.3196 1.5831 15.6727 1.86995 15.9566C2.15681 16.2405 2.51204 16.4456 2.90132 16.5521C4.35317 16.9404 10.1606 16.9404 10.1606 16.9404C10.1606 16.9404 15.968 16.9404 17.4198 16.5521C17.8172 16.4397 18.1779 16.2244 18.4654 15.928C18.7529 15.6316 18.9571 15.2645 19.0574 14.8639C19.3211 13.4016 19.451 11.9183 19.4457 10.4324C19.4551 8.92395 19.3252 7.41786 19.0574 5.93335V5.93335Z" stroke="#EAEAF1" stroke-opacity="0.8" stroke-width="0.8441" stroke-linecap="round" stroke-linejoin="round"/>
<path d="M8.26172 13.1942L13.1153 10.434L8.26172 7.67383V13.1942Z" stroke="#EAEAF1" stroke-opacity="0.8" stroke-width="0.8441" stroke-linecap="round" stroke-linejoin="round"/>
</g>
<defs>
<clipPath id="clip0_14_531">
<rect width="20.2584" height="20.2584" fill="white" transform="translate(0.03125 0.514648)"/>
</clipPath>
</defs>
</svg>
