<svg width="19" height="18" viewBox="0 0 19 18" fill="none" xmlns="http://www.w3.org/2000/svg">
<path d="M10.0625 9.5625C10.0625 9.71168 10.0032 9.85476 9.89775 9.96025C9.79226 10.0657 9.64918 10.125 9.5 10.125C9.35082 10.125 9.20774 10.0657 9.10225 9.96025C8.99676 9.85476 8.9375 9.71168 8.9375 9.5625C8.9375 9.41332 8.99676 9.27024 9.10225 9.16475C9.20774 9.05926 9.35082 9 9.5 9C9.64918 9 9.79226 9.05926 9.89775 9.16475C10.0032 9.27024 10.0625 9.41332 10.0625 9.5625ZM6.125 11.8125C6.27418 11.8125 6.41726 11.7532 6.52275 11.6477C6.62824 11.5423 6.6875 11.3992 6.6875 11.25C6.6875 11.1008 6.62824 10.9577 6.52275 10.8523C6.41726 10.7468 6.27418 10.6875 6.125 10.6875C5.97582 10.6875 5.83274 10.7468 5.72725 10.8523C5.62176 10.9577 5.5625 11.1008 5.5625 11.25C5.5625 11.3992 5.62176 11.5423 5.72725 11.6477C5.83274 11.7532 5.97582 11.8125 6.125 11.8125ZM6.6875 12.9375C6.6875 13.0867 6.62824 13.2298 6.52275 13.3352C6.41726 13.4407 6.27418 13.5 6.125 13.5C5.97582 13.5 5.83274 13.4407 5.72725 13.3352C5.62176 13.2298 5.5625 13.0867 5.5625 12.9375C5.5625 12.7883 5.62176 12.6452 5.72725 12.5398C5.83274 12.4343 5.97582 12.375 6.125 12.375C6.27418 12.375 6.41726 12.4343 6.52275 12.5398C6.62824 12.6452 6.6875 12.7883 6.6875 12.9375ZM7.8125 11.8125C7.96168 11.8125 8.10476 11.7532 8.21025 11.6477C8.31574 11.5423 8.375 11.3992 8.375 11.25C8.375 11.1008 8.31574 10.9577 8.21025 10.8523C8.10476 10.7468 7.96168 10.6875 7.8125 10.6875C7.66332 10.6875 7.52024 10.7468 7.41475 10.8523C7.30926 10.9577 7.25 11.1008 7.25 11.25C7.25 11.3992 7.30926 11.5423 7.41475 11.6477C7.52024 11.7532 7.66332 11.8125 7.8125 11.8125ZM8.375 12.9375C8.375 13.0867 8.31574 13.2298 8.21025 13.3352C8.10476 13.4407 7.96168 13.5 7.8125 13.5C7.66332 13.5 7.52024 13.4407 7.41475 13.3352C7.30926 13.2298 7.25 13.0867 7.25 12.9375C7.25 12.7883 7.30926 12.6452 7.41475 12.5398C7.52024 12.4343 7.66332 12.375 7.8125 12.375C7.96168 12.375 8.10476 12.4343 8.21025 12.5398C8.31574 12.6452 8.375 12.7883 8.375 12.9375ZM9.5 11.8125C9.64918 11.8125 9.79226 11.7532 9.89775 11.6477C10.0032 11.5423 10.0625 11.3992 10.0625 11.25C10.0625 11.1008 10.0032 10.9577 9.89775 10.8523C9.79226 10.7468 9.64918 10.6875 9.5 10.6875C9.35082 10.6875 9.20774 10.7468 9.10225 10.8523C8.99676 10.9577 8.9375 11.1008 8.9375 11.25C8.9375 11.3992 8.99676 11.5423 9.10225 11.6477C9.20774 11.7532 9.35082 11.8125 9.5 11.8125ZM10.0625 12.9375C10.0625 13.0867 10.0032 13.2298 9.89775 13.3352C9.79226 13.4407 9.64918 13.5 9.5 13.5C9.35082 13.5 9.20774 13.4407 9.10225 13.3352C8.99676 13.2298 8.9375 13.0867 8.9375 12.9375C8.9375 12.7883 8.99676 12.6452 9.10225 12.5398C9.20774 12.4343 9.35082 12.375 9.5 12.375C9.64918 12.375 9.79226 12.4343 9.89775 12.5398C10.0032 12.6452 10.0625 12.7883 10.0625 12.9375ZM11.1875 11.8125C11.3367 11.8125 11.4798 11.7532 11.5852 11.6477C11.6907 11.5423 11.75 11.3992 11.75 11.25C11.75 11.1008 11.6907 10.9577 11.5852 10.8523C11.4798 10.7468 11.3367 10.6875 11.1875 10.6875C11.0383 10.6875 10.8952 10.7468 10.7898 10.8523C10.6843 10.9577 10.625 11.1008 10.625 11.25C10.625 11.3992 10.6843 11.5423 10.7898 11.6477C10.8952 11.7532 11.0383 11.8125 11.1875 11.8125ZM11.75 12.9375C11.75 13.0867 11.6907 13.2298 11.5852 13.3352C11.4798 13.4407 11.3367 13.5 11.1875 13.5C11.0383 13.5 10.8952 13.4407 10.7898 13.3352C10.6843 13.2298 10.625 13.0867 10.625 12.9375C10.625 12.7883 10.6843 12.6452 10.7898 12.5398C10.8952 12.4343 11.0383 12.375 11.1875 12.375C11.3367 12.375 11.4798 12.4343 11.5852 12.5398C11.6907 12.6452 11.75 12.7883 11.75 12.9375ZM12.875 11.8125C13.0242 11.8125 13.1673 11.7532 13.2727 11.6477C13.3782 11.5423 13.4375 11.3992 13.4375 11.25C13.4375 11.1008 13.3782 10.9577 13.2727 10.8523C13.1673 10.7468 13.0242 10.6875 12.875 10.6875C12.7258 10.6875 12.5827 10.7468 12.4773 10.8523C12.3718 10.9577 12.3125 11.1008 12.3125 11.25C12.3125 11.3992 12.3718 11.5423 12.4773 11.6477C12.5827 11.7532 12.7258 11.8125 12.875 11.8125ZM11.75 9.5625C11.75 9.71168 11.6907 9.85476 11.5852 9.96025C11.4798 10.0657 11.3367 10.125 11.1875 10.125C11.0383 10.125 10.8952 10.0657 10.7898 9.96025C10.6843 9.85476 10.625 9.71168 10.625 9.5625C10.625 9.41332 10.6843 9.27024 10.7898 9.16475C10.8952 9.05926 11.0383 9 11.1875 9C11.3367 9 11.4798 9.05926 11.5852 9.16475C11.6907 9.27024 11.75 9.41332 11.75 9.5625ZM12.875 10.125C13.0242 10.125 13.1673 10.0657 13.2727 9.96025C13.3782 9.85476 13.4375 9.71168 13.4375 9.5625C13.4375 9.41332 13.3782 9.27024 13.2727 9.16475C13.1673 9.05926 13.0242 9 12.875 9C12.7258 9 12.5827 9.05926 12.4773 9.16475C12.3718 9.27024 12.3125 9.41332 12.3125 9.5625C12.3125 9.71168 12.3718 9.85476 12.4773 9.96025C12.5827 10.0657 12.7258 10.125 12.875 10.125Z" fill="#565656"/>
<path fill-rule="evenodd" clip-rule="evenodd" d="M5.5625 1.6875C5.71168 1.6875 5.85476 1.74676 5.96025 1.85225C6.06574 1.95774 6.125 2.10082 6.125 2.25V3.375H12.875V2.25C12.875 2.10082 12.9343 1.95774 13.0398 1.85225C13.1452 1.74676 13.2883 1.6875 13.4375 1.6875C13.5867 1.6875 13.7298 1.74676 13.8352 1.85225C13.9407 1.95774 14 2.10082 14 2.25V3.375H14.5625C15.1592 3.375 15.7315 3.61205 16.1535 4.03401C16.5754 4.45597 16.8125 5.02826 16.8125 5.625V14.0625C16.8125 14.6592 16.5754 15.2315 16.1535 15.6535C15.7315 16.0754 15.1592 16.3125 14.5625 16.3125H4.4375C3.84076 16.3125 3.26847 16.0754 2.84651 15.6535C2.42455 15.2315 2.1875 14.6592 2.1875 14.0625V5.625C2.1875 5.02826 2.42455 4.45597 2.84651 4.03401C3.26847 3.61205 3.84076 3.375 4.4375 3.375H5V2.25C5 2.10082 5.05926 1.95774 5.16475 1.85225C5.27024 1.74676 5.41332 1.6875 5.5625 1.6875ZM15.6875 8.4375C15.6875 8.13913 15.569 7.85298 15.358 7.642C15.147 7.43103 14.8609 7.3125 14.5625 7.3125H4.4375C4.13913 7.3125 3.85298 7.43103 3.642 7.642C3.43103 7.85298 3.3125 8.13913 3.3125 8.4375V14.0625C3.3125 14.3609 3.43103 14.647 3.642 14.858C3.85298 15.069 4.13913 15.1875 4.4375 15.1875H14.5625C14.8609 15.1875 15.147 15.069 15.358 14.858C15.569 14.647 15.6875 14.3609 15.6875 14.0625V8.4375Z" fill="#565656"/>
</svg>
