<svg width="115" height="21" viewBox="0 0 115 21" fill="none" xmlns="http://www.w3.org/2000/svg">
<path d="M37.8888 7.78979L46.1309 7.7898L46.1309 9.28962L42.8857 9.28962L42.8857 17.7444L41.1069 17.7444L41.1069 9.28962L37.8752 9.28962L37.8888 7.78979ZM45.7779 10.5373L47.2986 10.5373L47.2986 11.9309L47.3258 11.9309C47.3801 11.7318 47.4752 11.546 47.6109 11.3602C47.7467 11.1744 47.9097 11.0018 48.1133 10.8558C48.3034 10.6965 48.5207 10.5771 48.7651 10.4842C48.9959 10.3913 49.2403 10.3382 49.4848 10.3382C49.6749 10.3382 49.8106 10.3514 49.8785 10.3514C49.9464 10.3647 50.0279 10.378 50.0958 10.378L50.0958 11.9044C49.9872 11.8778 49.865 11.8645 49.7427 11.8513C49.6205 11.838 49.5119 11.8247 49.3897 11.8247C49.1181 11.8247 48.8602 11.8778 48.6157 11.984C48.3713 12.0902 48.1677 12.2494 47.9776 12.4485C47.801 12.6609 47.6517 12.9131 47.5431 13.2184C47.4344 13.5236 47.3801 13.882 47.3801 14.2802L47.3801 17.7046L45.7507 17.7046L45.7779 10.5373ZM57.5639 17.7444L55.9616 17.7444L55.9616 16.7356L55.9345 16.7356C55.7308 17.1073 55.4321 17.386 55.0383 17.6116C54.6445 17.8373 54.2372 17.9435 53.8298 17.9435C52.8658 17.9435 52.1597 17.7178 51.7252 17.24C51.2907 16.7755 51.0734 16.0587 51.0734 15.1164L51.0734 10.5373L52.7028 10.5373L52.7028 14.9571C52.7028 15.5942 52.825 16.0455 53.083 16.2976C53.3274 16.5631 53.6805 16.6958 54.1286 16.6958C54.468 16.6958 54.7532 16.6427 54.984 16.5366C55.2148 16.4304 55.4049 16.2976 55.5407 16.1251C55.6901 15.9526 55.7851 15.7402 55.853 15.5013C55.9209 15.2624 55.9481 14.9969 55.9481 14.7182L55.9481 10.5373L57.5775 10.5373L57.5775 17.7444L57.5639 17.7444ZM60.3339 15.4349C60.3882 15.8995 60.5647 16.218 60.877 16.4171C61.1893 16.6029 61.5695 16.6958 62.004 16.6958C62.1534 16.6958 62.3299 16.6826 62.52 16.656C62.7101 16.6295 62.9002 16.5896 63.0631 16.5233C63.2397 16.4569 63.3754 16.364 63.4841 16.2313C63.5927 16.0986 63.647 15.9393 63.6334 15.7402C63.6199 15.5411 63.552 15.3685 63.4026 15.2358C63.2532 15.1031 63.0767 15.0102 62.8595 14.9173C62.6422 14.8376 62.3842 14.7713 62.0991 14.7182C61.8139 14.6651 61.5288 14.5987 61.2301 14.5324C60.9313 14.466 60.6326 14.3864 60.3475 14.2935C60.0623 14.2005 59.8179 14.0811 59.5871 13.9085C59.3698 13.7493 59.1797 13.5502 59.0575 13.298C58.9217 13.0458 58.8538 12.7538 58.8538 12.3822C58.8538 11.984 58.9489 11.6654 59.1526 11.4C59.3427 11.1345 59.6007 10.9222 59.8994 10.7629C60.1981 10.6036 60.5376 10.4842 60.9042 10.4178C61.2708 10.3514 61.6238 10.3249 61.9497 10.3249C62.3299 10.3249 62.6965 10.3647 63.036 10.4444C63.3754 10.524 63.7013 10.6434 63.9729 10.8293C64.258 11.0018 64.4889 11.2407 64.6654 11.5194C64.8555 11.7982 64.9641 12.1433 65.0184 12.5414L63.3211 12.5414C63.2397 12.1565 63.0631 11.9044 62.7916 11.7716C62.5064 11.6389 62.1941 11.5725 61.8275 11.5725C61.7189 11.5725 61.5695 11.5858 61.4202 11.5991C61.2572 11.6256 61.1214 11.6522 60.9721 11.7053C60.8363 11.7584 60.7141 11.838 60.619 11.9309C60.524 12.0238 60.4697 12.1565 60.4697 12.3158C60.4697 12.5149 60.5376 12.6609 60.6733 12.7804C60.8091 12.8998 60.9856 12.9927 61.2165 13.0856C61.4337 13.1653 61.6917 13.2316 61.9769 13.2847C62.262 13.3378 62.5607 13.4042 62.8595 13.4705C63.1582 13.5369 63.4433 13.6165 63.7285 13.7095C64.0136 13.8024 64.2716 13.9218 64.4889 14.0944C64.7061 14.2536 64.8962 14.4527 65.032 14.6916C65.1678 14.9305 65.2357 15.2358 65.2357 15.5809C65.2357 16.0056 65.1406 16.364 64.937 16.6693C64.7333 16.9613 64.4753 17.2135 64.163 17.3993C63.8507 17.5851 63.4841 17.7178 63.1039 17.8107C62.7101 17.8904 62.3299 17.9435 61.9497 17.9435C61.488 17.9435 61.0535 17.8904 60.6598 17.7842C60.266 17.678 59.913 17.5187 59.6278 17.3196C59.3427 17.1073 59.1118 16.8551 58.9489 16.5366C58.7859 16.2313 58.6909 15.8596 58.6773 15.4216L60.3203 15.4216L60.3203 15.4349L60.3339 15.4349ZM65.6973 10.5373L66.933 10.5373L66.933 8.36053L68.5624 8.36053L68.5624 10.524L70.0288 10.524L70.0288 11.7053L68.5624 11.7053L68.5624 15.5544C68.5624 15.7269 68.576 15.8596 68.5895 15.9924C68.6031 16.1118 68.6439 16.218 68.6846 16.2976C68.7389 16.3773 68.8204 16.4436 68.9154 16.4835C69.0241 16.5233 69.1598 16.5498 69.3499 16.5498C69.4586 16.5498 69.5808 16.5498 69.6894 16.5366C69.798 16.5233 69.9202 16.51 70.0288 16.4835L70.0288 17.7178C69.8523 17.7444 69.6758 17.7576 69.4993 17.7709C69.3228 17.7975 69.1598 17.7975 68.9697 17.7975C68.5352 17.7975 68.1958 17.7577 67.9378 17.678C67.6798 17.5984 67.4761 17.4789 67.3268 17.3329C67.1774 17.1736 67.0823 16.9878 67.028 16.7622C66.9737 16.5366 66.9466 16.2578 66.933 15.9658L66.933 11.7185L65.6973 11.7185L65.6973 10.5107L65.6973 10.5373ZM71.1694 10.5373L72.7038 10.5373L72.7038 11.5194L72.7309 11.5194C72.9618 11.0947 73.2741 10.8027 73.6814 10.6169C74.0888 10.4311 74.5233 10.3382 75.0121 10.3382C75.596 10.3382 76.0984 10.4311 76.5329 10.6434C76.9674 10.8425 77.3204 11.108 77.6056 11.4664C77.8907 11.8114 78.108 12.2229 78.2438 12.6875C78.3796 13.152 78.461 13.6564 78.461 14.174C78.461 14.6651 78.3931 15.1296 78.2709 15.5809C78.1351 16.0322 77.945 16.4436 77.6871 16.7887C77.4291 17.1338 77.1032 17.4126 76.6958 17.6249C76.2885 17.8373 75.8268 17.9435 75.2837 17.9435C75.0529 17.9435 74.8084 17.9169 74.5776 17.8771C74.3468 17.8373 74.1159 17.7709 73.8987 17.678C73.6814 17.5851 73.4778 17.4656 73.3012 17.3196C73.1111 17.1736 72.9618 17.0011 72.8396 16.8153L72.8124 16.8153L72.8124 20.4122L71.183 20.4122L71.183 10.5373L71.1694 10.5373ZM76.8588 14.1475C76.8588 13.8289 76.818 13.5104 76.723 13.2051C76.6415 12.8998 76.5057 12.6344 76.3292 12.3954C76.1527 12.1565 75.9354 11.9707 75.691 11.8247C75.433 11.6787 75.1343 11.6124 74.8084 11.6124C74.1295 11.6124 73.6135 11.838 73.2605 12.3025C72.921 12.7671 72.7445 13.3909 72.7445 14.1607C72.7445 14.5324 72.7853 14.8642 72.8803 15.1695C72.9754 15.4747 73.0976 15.7402 73.2877 15.9658C73.4642 16.1915 73.6814 16.364 73.9394 16.4967C74.1974 16.6295 74.4826 16.6958 74.822 16.6958C75.2022 16.6958 75.5009 16.6162 75.7589 16.4702C76.0169 16.3242 76.2206 16.1251 76.3971 15.8995C76.56 15.6606 76.6823 15.3951 76.7501 15.0898C76.818 14.7713 76.8588 14.466 76.8588 14.1475ZM79.7238 7.7898L81.3532 7.7898L81.3532 9.28962L79.7238 9.28962L79.7238 7.7898ZM79.7238 10.5373L81.3532 10.5373L81.3532 17.7444L79.7238 17.7444L79.7238 10.5373ZM82.8061 7.7898L84.4355 7.7898L84.4355 17.7444L82.8061 17.7444L82.8061 7.7898ZM89.4052 17.9435C88.8213 17.9435 88.2918 17.8506 87.8301 17.6515C87.3684 17.4524 86.9883 17.2002 86.6624 16.8684C86.3501 16.5366 86.1056 16.1251 85.9427 15.6606C85.7798 15.196 85.6847 14.6784 85.6847 14.1342C85.6847 13.59 85.7662 13.0856 85.9427 12.6211C86.1056 12.1565 86.3501 11.7584 86.6624 11.4133C86.9747 11.0814 87.3684 10.816 87.8301 10.6302C88.2918 10.4444 88.8213 10.3382 89.4052 10.3382C89.9891 10.3382 90.5186 10.4311 90.9803 10.6302C91.442 10.816 91.8221 11.0814 92.148 11.4133C92.4603 11.7451 92.7047 12.1565 92.8677 12.6211C93.0306 13.0856 93.1257 13.59 93.1257 14.1342C93.1257 14.6916 93.0442 15.196 92.8677 15.6606C92.6912 16.1251 92.4603 16.5233 92.148 16.8684C91.8357 17.2002 91.442 17.4657 90.9803 17.6515C90.5186 17.8373 90.0026 17.9435 89.4052 17.9435ZM89.4052 16.6826C89.7582 16.6826 90.0841 16.6029 90.3421 16.4569C90.6137 16.3109 90.8174 16.1118 90.9939 15.8729C91.1704 15.634 91.2926 15.3553 91.3741 15.0633C91.4555 14.758 91.4963 14.4527 91.4963 14.1342C91.4963 13.8289 91.4555 13.5236 91.3741 13.2184C91.2926 12.9131 91.1704 12.6476 90.9939 12.4087C90.8174 12.1698 90.6001 11.984 90.3421 11.838C90.0705 11.692 89.7582 11.6124 89.4052 11.6124C89.0522 11.6124 88.7263 11.692 88.4683 11.838C88.1967 11.984 87.9931 12.1831 87.8165 12.4087C87.64 12.6476 87.5178 12.9131 87.4363 13.2184C87.3549 13.5236 87.3141 13.8289 87.3141 14.1342C87.3141 14.4527 87.3549 14.758 87.4363 15.0633C87.5178 15.3686 87.64 15.634 87.8165 15.8729C87.9931 16.1118 88.2103 16.3109 88.4683 16.4569C88.7399 16.6162 89.0522 16.6826 89.4052 16.6826ZM93.6145 10.5373L94.8501 10.5373L94.8501 8.36053L96.4795 8.36053L96.4795 10.524L97.946 10.524L97.946 11.7053L96.4795 11.7053L96.4795 15.5544C96.4795 15.7269 96.4931 15.8596 96.5067 15.9924C96.5203 16.1118 96.561 16.218 96.6017 16.2976C96.6561 16.3773 96.7375 16.4436 96.8326 16.4835C96.9412 16.5233 97.077 16.5498 97.2671 16.5498C97.3757 16.5498 97.4979 16.5498 97.6065 16.5366C97.7152 16.5233 97.8374 16.51 97.946 16.4835L97.946 17.7178C97.7695 17.7444 97.593 17.7577 97.4164 17.7709C97.2399 17.7975 97.077 17.7975 96.8869 17.7975C96.4524 17.7975 96.1129 17.7577 95.8549 17.678C95.5969 17.5984 95.3933 17.4789 95.2439 17.3329C95.0945 17.1737 94.9995 16.9878 94.9452 16.7622C94.8909 16.5366 94.8637 16.2578 94.8501 15.9658L94.8501 11.7185L93.6145 11.7185L93.6145 10.5107L93.6145 10.5373Z" fill="white"/>
<path d="M35.988 7.78972L28.5334 7.78972L26.2387 0.861329L23.9304 7.78972L16.4758 7.77644L22.5046 12.0636L20.1963 18.9919L26.2251 14.7048L32.2539 18.9919L29.9592 12.0636L35.988 7.78972Z" fill="#1BB580"/>
<path d="M30.475 13.6297L29.959 12.0635L26.2385 14.7048L30.475 13.6297Z" fill="#3A7778"/>
</svg>
