<svg width="150" height="151" viewBox="0 0 150 151" fill="none" xmlns="http://www.w3.org/2000/svg">
<g opacity="0.2">
<ellipse cx="4.02116" cy="4.97235" rx="4.02116" ry="4.02118" fill="#BEC2D9"/>
<ellipse cx="4.02116" cy="17.7809" rx="4.02116" ry="4.02118" fill="#BEC2D9"/>
<ellipse cx="4.02116" cy="30.5886" rx="4.02116" ry="4.02118" fill="#BEC2D9"/>
<ellipse cx="4.02116" cy="43.3972" rx="4.02116" ry="4.02118" fill="#BEC2D9"/>
<ellipse cx="4.02116" cy="56.2048" rx="4.02116" ry="4.02118" fill="#BEC2D9"/>
<ellipse cx="4.02116" cy="69.0134" rx="4.02116" ry="4.02118" fill="#BEC2D9"/>
<ellipse cx="16.8298" cy="4.97235" rx="4.02116" ry="4.02118" fill="#BEC2D9"/>
<ellipse cx="16.8298" cy="17.7809" rx="4.02116" ry="4.02118" fill="#BEC2D9"/>
<ellipse cx="16.8298" cy="30.5886" rx="4.02116" ry="4.02118" fill="#BEC2D9"/>
<ellipse cx="16.8298" cy="43.3972" rx="4.02116" ry="4.02118" fill="#BEC2D9"/>
<ellipse cx="16.8298" cy="56.2048" rx="4.02116" ry="4.02118" fill="#BEC2D9"/>
<ellipse cx="16.8298" cy="69.0134" rx="4.02116" ry="4.02118" fill="#BEC2D9"/>
<ellipse cx="29.6364" cy="4.97235" rx="4.02116" ry="4.02118" fill="#BEC2D9"/>
<ellipse cx="29.6364" cy="17.7809" rx="4.02116" ry="4.02118" fill="#BEC2D9"/>
<ellipse cx="29.6364" cy="30.5886" rx="4.02116" ry="4.02118" fill="#BEC2D9"/>
<ellipse cx="29.6364" cy="43.3972" rx="4.02116" ry="4.02118" fill="#BEC2D9"/>
<ellipse cx="29.6364" cy="56.2048" rx="4.02116" ry="4.02118" fill="#BEC2D9"/>
<ellipse cx="29.6364" cy="69.0134" rx="4.02116" ry="4.02118" fill="#BEC2D9"/>
<ellipse cx="42.445" cy="4.97235" rx="4.02116" ry="4.02118" fill="#BEC2D9"/>
<ellipse cx="42.445" cy="17.7809" rx="4.02116" ry="4.02118" fill="#BEC2D9"/>
<ellipse cx="42.445" cy="30.5886" rx="4.02116" ry="4.02118" fill="#BEC2D9"/>
<ellipse cx="42.445" cy="43.3972" rx="4.02116" ry="4.02118" fill="#BEC2D9"/>
<ellipse cx="42.445" cy="56.2048" rx="4.02116" ry="4.02118" fill="#BEC2D9"/>
<ellipse cx="42.445" cy="69.0134" rx="4.02116" ry="4.02118" fill="#BEC2D9"/>
<ellipse cx="55.2536" cy="4.97235" rx="4.02116" ry="4.02118" fill="#BEC2D9"/>
<ellipse cx="55.2536" cy="17.7809" rx="4.02116" ry="4.02118" fill="#BEC2D9"/>
<ellipse cx="55.2536" cy="30.5886" rx="4.02116" ry="4.02118" fill="#BEC2D9"/>
<ellipse cx="55.2536" cy="43.3972" rx="4.02116" ry="4.02118" fill="#BEC2D9"/>
<ellipse cx="55.2536" cy="56.2048" rx="4.02116" ry="4.02118" fill="#BEC2D9"/>
<ellipse cx="55.2536" cy="69.0134" rx="4.02116" ry="4.02118" fill="#BEC2D9"/>
<ellipse cx="68.0641" cy="4.97235" rx="4.02116" ry="4.02118" fill="#BEC2D9"/>
<ellipse cx="68.0641" cy="17.7809" rx="4.02116" ry="4.02118" fill="#BEC2D9"/>
<ellipse cx="68.0641" cy="30.5886" rx="4.02116" ry="4.02118" fill="#BEC2D9"/>
<ellipse cx="68.0641" cy="43.3972" rx="4.02116" ry="4.02118" fill="#BEC2D9"/>
<ellipse cx="68.0641" cy="56.2048" rx="4.02116" ry="4.02118" fill="#BEC2D9"/>
<ellipse cx="68.0641" cy="69.0134" rx="4.02116" ry="4.02118" fill="#BEC2D9"/>
</g>
<g opacity="0.2">
<ellipse cx="4.02116" cy="82.1012" rx="4.02116" ry="4.02118" fill="#BEC2D9"/>
<ellipse cx="4.02116" cy="94.9098" rx="4.02116" ry="4.02118" fill="#BEC2D9"/>
<ellipse cx="4.02116" cy="107.717" rx="4.02116" ry="4.02118" fill="#BEC2D9"/>
<ellipse cx="4.02116" cy="120.526" rx="4.02116" ry="4.02118" fill="#BEC2D9"/>
<ellipse cx="4.02116" cy="133.334" rx="4.02116" ry="4.02118" fill="#BEC2D9"/>
<ellipse cx="4.02116" cy="146.142" rx="4.02116" ry="4.02118" fill="#BEC2D9"/>
<ellipse cx="16.8298" cy="82.1012" rx="4.02116" ry="4.02118" fill="#BEC2D9"/>
<ellipse cx="16.8298" cy="94.9098" rx="4.02116" ry="4.02118" fill="#BEC2D9"/>
<ellipse cx="16.8298" cy="107.717" rx="4.02116" ry="4.02118" fill="#BEC2D9"/>
<ellipse cx="16.8298" cy="120.526" rx="4.02116" ry="4.02118" fill="#BEC2D9"/>
<ellipse cx="16.8298" cy="133.334" rx="4.02116" ry="4.02118" fill="#BEC2D9"/>
<ellipse cx="16.8298" cy="146.142" rx="4.02116" ry="4.02118" fill="#BEC2D9"/>
<ellipse cx="29.6364" cy="82.1012" rx="4.02116" ry="4.02118" fill="#BEC2D9"/>
<ellipse cx="29.6364" cy="94.9098" rx="4.02116" ry="4.02118" fill="#BEC2D9"/>
<ellipse cx="29.6364" cy="107.717" rx="4.02116" ry="4.02118" fill="#BEC2D9"/>
<ellipse cx="29.6364" cy="120.526" rx="4.02116" ry="4.02118" fill="#BEC2D9"/>
<ellipse cx="29.6364" cy="133.334" rx="4.02116" ry="4.02118" fill="#BEC2D9"/>
<ellipse cx="29.6364" cy="146.142" rx="4.02116" ry="4.02118" fill="#BEC2D9"/>
<ellipse cx="42.445" cy="82.1012" rx="4.02116" ry="4.02118" fill="#BEC2D9"/>
<ellipse cx="42.445" cy="94.9098" rx="4.02116" ry="4.02118" fill="#BEC2D9"/>
<ellipse cx="42.445" cy="107.717" rx="4.02116" ry="4.02118" fill="#BEC2D9"/>
<ellipse cx="42.445" cy="120.526" rx="4.02116" ry="4.02118" fill="#BEC2D9"/>
<ellipse cx="42.445" cy="133.334" rx="4.02116" ry="4.02118" fill="#BEC2D9"/>
<ellipse cx="42.445" cy="146.142" rx="4.02116" ry="4.02118" fill="#BEC2D9"/>
<ellipse cx="55.2536" cy="82.1012" rx="4.02116" ry="4.02118" fill="#BEC2D9"/>
<ellipse cx="55.2536" cy="94.9098" rx="4.02116" ry="4.02118" fill="#BEC2D9"/>
<ellipse cx="55.2536" cy="107.717" rx="4.02116" ry="4.02118" fill="#BEC2D9"/>
<ellipse cx="55.2536" cy="120.526" rx="4.02116" ry="4.02118" fill="#BEC2D9"/>
<ellipse cx="55.2536" cy="133.334" rx="4.02116" ry="4.02118" fill="#BEC2D9"/>
<ellipse cx="55.2536" cy="146.142" rx="4.02116" ry="4.02118" fill="#BEC2D9"/>
<ellipse cx="68.0641" cy="82.1012" rx="4.02116" ry="4.02118" fill="#BEC2D9"/>
<ellipse cx="68.0641" cy="94.9098" rx="4.02116" ry="4.02118" fill="#BEC2D9"/>
<ellipse cx="68.0641" cy="107.717" rx="4.02116" ry="4.02118" fill="#BEC2D9"/>
<ellipse cx="68.0641" cy="120.526" rx="4.02116" ry="4.02118" fill="#BEC2D9"/>
<ellipse cx="68.0641" cy="133.334" rx="4.02116" ry="4.02118" fill="#BEC2D9"/>
<ellipse cx="68.0641" cy="146.142" rx="4.02116" ry="4.02118" fill="#BEC2D9"/>
</g>
<g opacity="0.2">
<ellipse cx="81.1501" cy="4.97235" rx="4.02116" ry="4.02118" fill="#BEC2D9"/>
<ellipse cx="81.1501" cy="17.7809" rx="4.02116" ry="4.02118" fill="#BEC2D9"/>
<ellipse cx="81.1501" cy="30.5886" rx="4.02116" ry="4.02118" fill="#BEC2D9"/>
<ellipse cx="81.1501" cy="43.3972" rx="4.02116" ry="4.02118" fill="#BEC2D9"/>
<ellipse cx="81.1501" cy="56.2048" rx="4.02116" ry="4.02118" fill="#BEC2D9"/>
<ellipse cx="81.1501" cy="69.0134" rx="4.02116" ry="4.02118" fill="#BEC2D9"/>
<ellipse cx="93.9587" cy="4.97235" rx="4.02116" ry="4.02118" fill="#BEC2D9"/>
<ellipse cx="93.9587" cy="17.7809" rx="4.02116" ry="4.02118" fill="#BEC2D9"/>
<ellipse cx="93.9587" cy="30.5886" rx="4.02116" ry="4.02118" fill="#BEC2D9"/>
<ellipse cx="93.9587" cy="43.3972" rx="4.02116" ry="4.02118" fill="#BEC2D9"/>
<ellipse cx="93.9587" cy="56.2048" rx="4.02116" ry="4.02118" fill="#BEC2D9"/>
<ellipse cx="93.9587" cy="69.0134" rx="4.02116" ry="4.02118" fill="#BEC2D9"/>
<ellipse cx="106.765" cy="4.97235" rx="4.02116" ry="4.02118" fill="#BEC2D9"/>
<ellipse cx="106.765" cy="17.7809" rx="4.02116" ry="4.02118" fill="#BEC2D9"/>
<ellipse cx="106.765" cy="30.5886" rx="4.02116" ry="4.02118" fill="#BEC2D9"/>
<ellipse cx="106.765" cy="43.3972" rx="4.02116" ry="4.02118" fill="#BEC2D9"/>
<ellipse cx="106.765" cy="56.2048" rx="4.02116" ry="4.02118" fill="#BEC2D9"/>
<ellipse cx="106.765" cy="69.0134" rx="4.02116" ry="4.02118" fill="#BEC2D9"/>
<ellipse cx="119.574" cy="4.97235" rx="4.02116" ry="4.02118" fill="#BEC2D9"/>
<ellipse cx="119.574" cy="17.7809" rx="4.02116" ry="4.02118" fill="#BEC2D9"/>
<ellipse cx="119.574" cy="30.5886" rx="4.02116" ry="4.02118" fill="#BEC2D9"/>
<ellipse cx="119.574" cy="43.3972" rx="4.02116" ry="4.02118" fill="#BEC2D9"/>
<ellipse cx="119.574" cy="56.2048" rx="4.02116" ry="4.02118" fill="#BEC2D9"/>
<ellipse cx="119.574" cy="69.0134" rx="4.02116" ry="4.02118" fill="#BEC2D9"/>
<ellipse cx="132.382" cy="4.97235" rx="4.02116" ry="4.02118" fill="#BEC2D9"/>
<ellipse cx="132.382" cy="17.7809" rx="4.02116" ry="4.02118" fill="#BEC2D9"/>
<ellipse cx="132.382" cy="30.5886" rx="4.02116" ry="4.02118" fill="#BEC2D9"/>
<ellipse cx="132.382" cy="43.3972" rx="4.02116" ry="4.02118" fill="#BEC2D9"/>
<ellipse cx="132.382" cy="56.2048" rx="4.02116" ry="4.02118" fill="#BEC2D9"/>
<ellipse cx="132.382" cy="69.0134" rx="4.02116" ry="4.02118" fill="#BEC2D9"/>
<ellipse cx="145.193" cy="4.97235" rx="4.02116" ry="4.02118" fill="#BEC2D9"/>
<ellipse cx="145.193" cy="17.7809" rx="4.02116" ry="4.02118" fill="#BEC2D9"/>
<ellipse cx="145.193" cy="30.5886" rx="4.02116" ry="4.02118" fill="#BEC2D9"/>
<ellipse cx="145.193" cy="43.3972" rx="4.02116" ry="4.02118" fill="#BEC2D9"/>
<ellipse cx="145.193" cy="56.2048" rx="4.02116" ry="4.02118" fill="#BEC2D9"/>
<ellipse cx="145.193" cy="69.0134" rx="4.02116" ry="4.02118" fill="#BEC2D9"/>
</g>
<g opacity="0.2">
<ellipse cx="81.1501" cy="82.1013" rx="4.02116" ry="4.02118" fill="#BEC2D9"/>
<ellipse cx="81.1501" cy="94.9099" rx="4.02116" ry="4.02118" fill="#BEC2D9"/>
<ellipse cx="81.1501" cy="107.717" rx="4.02116" ry="4.02118" fill="#BEC2D9"/>
<ellipse cx="81.1501" cy="120.526" rx="4.02116" ry="4.02118" fill="#BEC2D9"/>
<ellipse cx="81.1501" cy="133.334" rx="4.02116" ry="4.02118" fill="#BEC2D9"/>
<ellipse cx="81.1501" cy="146.142" rx="4.02116" ry="4.02118" fill="#BEC2D9"/>
<ellipse cx="93.9587" cy="82.1013" rx="4.02116" ry="4.02118" fill="#BEC2D9"/>
<ellipse cx="93.9587" cy="94.9099" rx="4.02116" ry="4.02118" fill="#BEC2D9"/>
<ellipse cx="93.9587" cy="107.717" rx="4.02116" ry="4.02118" fill="#BEC2D9"/>
<ellipse cx="93.9587" cy="120.526" rx="4.02116" ry="4.02118" fill="#BEC2D9"/>
<ellipse cx="93.9587" cy="133.334" rx="4.02116" ry="4.02118" fill="#BEC2D9"/>
<ellipse cx="93.9587" cy="146.142" rx="4.02116" ry="4.02118" fill="#BEC2D9"/>
<ellipse cx="106.765" cy="82.1013" rx="4.02116" ry="4.02118" fill="#BEC2D9"/>
<ellipse cx="106.765" cy="94.9099" rx="4.02116" ry="4.02118" fill="#BEC2D9"/>
<ellipse cx="106.765" cy="107.717" rx="4.02116" ry="4.02118" fill="#BEC2D9"/>
<ellipse cx="106.765" cy="120.526" rx="4.02116" ry="4.02118" fill="#BEC2D9"/>
<ellipse cx="106.765" cy="133.334" rx="4.02116" ry="4.02118" fill="#BEC2D9"/>
<ellipse cx="106.765" cy="146.142" rx="4.02116" ry="4.02118" fill="#BEC2D9"/>
<ellipse cx="119.574" cy="82.1013" rx="4.02116" ry="4.02118" fill="#BEC2D9"/>
<ellipse cx="119.574" cy="94.9099" rx="4.02116" ry="4.02118" fill="#BEC2D9"/>
<ellipse cx="119.574" cy="107.717" rx="4.02116" ry="4.02118" fill="#BEC2D9"/>
<ellipse cx="119.574" cy="120.526" rx="4.02116" ry="4.02118" fill="#BEC2D9"/>
<ellipse cx="119.574" cy="133.334" rx="4.02116" ry="4.02118" fill="#BEC2D9"/>
<ellipse cx="119.574" cy="146.142" rx="4.02116" ry="4.02118" fill="#BEC2D9"/>
<ellipse cx="132.382" cy="82.1013" rx="4.02116" ry="4.02118" fill="#BEC2D9"/>
<ellipse cx="132.382" cy="94.9099" rx="4.02116" ry="4.02118" fill="#BEC2D9"/>
<ellipse cx="132.382" cy="107.717" rx="4.02116" ry="4.02118" fill="#BEC2D9"/>
<ellipse cx="132.382" cy="120.526" rx="4.02116" ry="4.02118" fill="#BEC2D9"/>
<ellipse cx="132.382" cy="133.334" rx="4.02116" ry="4.02118" fill="#BEC2D9"/>
<ellipse cx="132.382" cy="146.142" rx="4.02116" ry="4.02118" fill="#BEC2D9"/>
<ellipse cx="145.193" cy="82.1013" rx="4.02116" ry="4.02118" fill="#BEC2D9"/>
<ellipse cx="145.193" cy="94.9099" rx="4.02116" ry="4.02118" fill="#BEC2D9"/>
<ellipse cx="145.193" cy="107.717" rx="4.02116" ry="4.02118" fill="#BEC2D9"/>
<ellipse cx="145.193" cy="120.526" rx="4.02116" ry="4.02118" fill="#BEC2D9"/>
<ellipse cx="145.193" cy="133.334" rx="4.02116" ry="4.02118" fill="#BEC2D9"/>
<ellipse cx="145.193" cy="146.142" rx="4.02116" ry="4.02118" fill="#BEC2D9"/>
</g>
</svg>
