<svg width="22" height="21" viewBox="0 0 22 21" fill="none" xmlns="http://www.w3.org/2000/svg">
<path d="M15.1224 2.20215H6.68144C4.35052 2.20215 2.46094 4.09173 2.46094 6.42265V14.8636C2.46094 17.1946 4.35052 19.0841 6.68144 19.0841H15.1224C17.4534 19.0841 19.3429 17.1946 19.3429 14.8636V6.42265C19.3429 4.09173 17.4534 2.20215 15.1224 2.20215Z" stroke="#EAEAF1" stroke-opacity="0.8" stroke-width="0.8441" stroke-linecap="round" stroke-linejoin="round"/>
<path d="M14.2788 10.1126C14.383 10.8151 14.263 11.5325 13.9359 12.1629C13.6088 12.7933 13.0913 13.3045 12.4569 13.6238C11.8225 13.9431 11.1037 14.0542 10.4025 13.9414C9.70133 13.8285 9.0536 13.4975 8.55143 12.9953C8.04925 12.4931 7.71821 11.8454 7.60539 11.1443C7.49256 10.4431 7.6037 9.72421 7.92299 9.08985C8.24228 8.45549 8.75346 7.93797 9.38383 7.61088C10.0142 7.28379 10.7317 7.1638 11.4342 7.26797C12.1507 7.37423 12.8141 7.70814 13.3264 8.22037C13.8386 8.73261 14.1725 9.39601 14.2788 10.1126Z" stroke="#EAEAF1" stroke-opacity="0.8" stroke-width="0.8441" stroke-linecap="round" stroke-linejoin="round"/>
<path d="M15.5449 6.00195H15.5537" stroke="#EAEAF1" stroke-opacity="0.8" stroke-width="0.8441" stroke-linecap="round" stroke-linejoin="round"/>
</svg>
